<svg width="22" height="22" viewBox="0 0 22 22" fill="none" xmlns="http://www.w3.org/2000/svg">
<path d="M21.4378 2.72556L19.7389 0.672222C19.4089 0.256667 18.9078 0 18.3333 0H3.66667C3.09222 0 2.59111 0.256667 2.24889 0.672222L0.562222 2.72556C0.207778 3.14111 0 3.69111 0 4.27778V19.5556C0 20.9 1.1 22 2.44444 22H19.5556C20.9 22 22 20.9 22 19.5556V4.27778C22 3.69111 21.7922 3.14111 21.4378 2.72556ZM3.96 2.44444H18.04L19.03 3.63H2.98222L3.96 2.44444ZM2.44444 19.5556V6.11111H19.5556V19.5556H2.44444ZM12.7722 8.55556H9.22778V12.2222H6.11111L11 17.1111L15.8889 12.2222H12.7722V8.55556Z" fill="white" fill-opacity="0.8"/>
</svg>
