<svg width="20" height="22" viewBox="0 0 20 22" fill="none" xmlns="http://www.w3.org/2000/svg">
<path d="M7.78889 19.9637C7.78889 21.0893 8.77778 22 10 22C11.2222 22 12.2111 21.0893 12.2111 19.9637H7.78889ZM10 4.60465C13.0667 4.60465 15.5556 6.89674 15.5556 9.72093V16.8837H4.44444V9.72093C4.44444 6.89674 6.93333 4.60465 10 4.60465ZM10 0C9.07778 0 8.33333 0.685581 8.33333 1.53488V2.73209C4.84444 3.42791 2.22222 6.29302 2.22222 9.72093V15.8605L0 17.907V18.9302H20V17.907L17.7778 15.8605V9.72093C17.7778 6.29302 15.1556 3.42791 11.6667 2.73209V1.53488C11.6667 0.685581 10.9222 0 10 0ZM11.1111 6.65116H8.88889V9.72093H5.55556V11.7674H8.88889V14.8372H11.1111V11.7674H14.4444V9.72093H11.1111V6.65116Z" fill="white" fill-opacity="0.8"/>
</svg>
