<svg width="14" height="19" viewBox="0 0 14 19" fill="none" xmlns="http://www.w3.org/2000/svg">
<path d="M4 18.05C4 18.5725 4.45 19 5 19H9C9.55 19 10 18.5725 10 18.05V17.1H4V18.05ZM7 0C3.14 0 0 2.983 0 6.65C0 8.911 1.19 10.8965 3 12.103V14.25C3 14.7725 3.45 15.2 4 15.2H10C10.55 15.2 11 14.7725 11 14.25V12.103C12.81 10.8965 14 8.911 14 6.65C14 2.983 10.86 0 7 0ZM9.85 10.545L9 11.115V13.3H5V11.115L4.15 10.545C2.8 9.652 2 8.1985 2 6.65C2 4.028 4.24 1.9 7 1.9C9.76 1.9 12 4.028 12 6.65C12 8.1985 11.2 9.652 9.85 10.545Z" fill="white" fill-opacity="0.8"/>
</svg>
