<svg width="13" height="22" viewBox="0 0 13 22" fill="none" xmlns="http://www.w3.org/2000/svg">
<path d="M7.85714 2.2V7.7C7.85714 8.932 8.18016 10.076 8.73016 11H3.49206C4.05952 10.054 4.36508 8.91 4.36508 7.7V2.2H7.85714ZM10.4762 0H1.74603C1.26587 0 0.873016 0.495 0.873016 1.1C0.873016 1.705 1.26587 2.2 1.74603 2.2H2.61905V7.7C2.61905 9.526 1.44921 11 0 11V13.2H5.21191V20.9L6.08492 22L6.95794 20.9V13.2H12.2222V11C10.773 11 9.60317 9.526 9.60317 7.7V2.2H10.4762C10.9563 2.2 11.3492 1.705 11.3492 1.1C11.3492 0.495 10.9563 0 10.4762 0Z" fill="white" fill-opacity="0.8"/>
</svg>
