<svg width="14" height="16" viewBox="0 0 14 16" fill="none" xmlns="http://www.w3.org/2000/svg">
<path d="M8.55647 0H5.44588C5.01818 0 4.66824 0.342857 4.66824 0.761905C4.66824 1.18095 5.01818 1.52381 5.44588 1.52381H8.55647C8.98418 1.52381 9.33412 1.18095 9.33412 0.761905C9.33412 0.342857 8.98418 0 8.55647 0ZM7.00118 9.90476C7.42888 9.90476 7.77882 9.5619 7.77882 9.14286V6.09524C7.77882 5.67619 7.42888 5.33333 7.00118 5.33333C6.57347 5.33333 6.22353 5.67619 6.22353 6.09524V9.14286C6.22353 9.5619 6.57347 9.90476 7.00118 9.90476ZM12.468 4.86857L13.0513 4.29714C13.3468 4.00762 13.3546 3.52762 13.0513 3.23048L13.0435 3.22286C12.7402 2.92571 12.2581 2.93333 11.9548 3.22286L11.3716 3.79429C10.1662 2.84952 8.64979 2.28571 7.00118 2.28571C3.26847 2.28571 0.0956738 5.30286 0.00235616 8.96C-0.0987379 12.8305 3.06628 16 7.00118 16C10.8739 16 14 12.9295 14 9.14286C14 7.52762 13.4245 6.0419 12.468 4.86857ZM7.00118 14.4762C3.99168 14.4762 1.55765 12.0914 1.55765 9.14286C1.55765 6.19429 3.99168 3.80952 7.00118 3.80952C10.0107 3.80952 12.4447 6.19429 12.4447 9.14286C12.4447 12.0914 10.0107 14.4762 7.00118 14.4762Z" fill="white" fill-opacity="0.8"/>
</svg>
