<svg width="16" height="22" viewBox="0 0 16 22" fill="none" xmlns="http://www.w3.org/2000/svg">
<path d="M8 22C9.1 22 10 20.9846 10 19.7436H6C6 20.9846 6.9 22 8 22ZM14 15.2308V9.58974C14 6.12615 12.37 3.22667 9.5 2.45949V1.69231C9.5 0.755897 8.83 0 8 0C7.17 0 6.5 0.755897 6.5 1.69231V2.45949C3.64 3.22667 2 6.11487 2 9.58974V15.2308L0 17.4872V18.6154H16V17.4872L14 15.2308ZM12 16.359H4V9.58974C4 6.79179 5.51 4.51282 8 4.51282C10.49 4.51282 12 6.79179 12 9.58974V16.359Z" fill="white" fill-opacity="0.8"/>
</svg>
